<svg width="17" height="16" viewBox="0 0 17 16" fill="none" xmlns="http://www.w3.org/2000/svg">
<path fill-rule="evenodd" clip-rule="evenodd" d="M8.16671 2.66666C8.5349 2.66666 8.83337 2.96514 8.83337 3.33333V12.6667C8.83337 13.0349 8.5349 13.3333 8.16671 13.3333C7.79852 13.3333 7.50004 13.0349 7.50004 12.6667V3.33333C7.50004 2.96514 7.79852 2.66666 8.16671 2.66666Z" fill="#F54A45"/>
<path fill-rule="evenodd" clip-rule="evenodd" d="M3.02864 7.52859C3.28899 7.26824 3.7111 7.26824 3.97145 7.52859L8.16671 11.7239L12.362 7.52859C12.6223 7.26824 13.0444 7.26824 13.3048 7.52859C13.5651 7.78894 13.5651 8.21105 13.3048 8.4714L8.63811 13.1381C8.37776 13.3984 7.95565 13.3984 7.6953 13.1381L3.02864 8.4714C2.76829 8.21105 2.76829 7.78894 3.02864 7.52859Z" fill="#F54A45"/>
</svg>
