<svg width="65" height="64" viewBox="0 0 65 64" fill="none" xmlns="http://www.w3.org/2000/svg">
<rect x="0.500122" width="64" height="64" rx="32" fill="#FFB23E"/>
<path fill-rule="evenodd" clip-rule="evenodd" d="M21.1968 37.1967C22.6033 35.7902 24.511 35 26.5001 35H38.5001C40.4893 35 42.3969 35.7902 43.8035 37.1967C45.21 38.6032 46.0002 40.5109 46.0002 42.5V45.5C46.0002 46.3284 45.3286 47 44.5002 47C43.6717 47 43.0002 46.3284 43.0002 45.5V42.5C43.0002 41.3065 42.5261 40.1619 41.6821 39.318C40.8382 38.4741 39.6936 38 38.5001 38H26.5001C25.3067 38 24.1621 38.4741 23.3181 39.318C22.4742 40.1619 22.0001 41.3065 22.0001 42.5V45.5C22.0001 46.3284 21.3286 47 20.5001 47C19.6717 47 19.0001 46.3284 19.0001 45.5V42.5C19.0001 40.5109 19.7903 38.6032 21.1968 37.1967Z" fill="white"/>
<path fill-rule="evenodd" clip-rule="evenodd" d="M32.5 20C30.0148 20 28 22.0147 28 24.5C28 26.9853 30.0148 29 32.5 29C34.9853 29 37.0001 26.9853 37.0001 24.5C37.0001 22.0147 34.9853 20 32.5 20ZM25 24.5C25 20.3579 28.3579 17 32.5 17C36.6422 17 40.0001 20.3579 40.0001 24.5C40.0001 28.6422 36.6422 32 32.5 32C28.3579 32 25 28.6422 25 24.5Z" fill="white"/>
</svg>
