<svg width="17" height="16" viewBox="0 0 17 16" fill="none" xmlns="http://www.w3.org/2000/svg">
<path fill-rule="evenodd" clip-rule="evenodd" d="M8.83333 3.33333C9.20152 3.33333 9.5 3.63181 9.5 4V12.6667C9.5 13.0349 9.20152 13.3333 8.83333 13.3333C8.46514 13.3333 8.16667 13.0349 8.16667 12.6667V4C8.16667 3.63181 8.46514 3.33333 8.83333 3.33333Z" fill="#03A08B"/>
<path fill-rule="evenodd" clip-rule="evenodd" d="M8.36193 2.86193C8.62228 2.60158 9.04439 2.60158 9.30474 2.86193L13.9714 7.52859C14.2318 7.78894 14.2318 8.21105 13.9714 8.4714C13.7111 8.73175 13.2889 8.73175 13.0286 8.4714L8.83333 4.27614L4.63807 8.4714C4.37772 8.73175 3.95561 8.73175 3.69526 8.4714C3.43491 8.21105 3.43491 7.78894 3.69526 7.52859L8.36193 2.86193Z" fill="#03A08B"/>
</svg>
