<svg width="24" height="24" viewBox="0 0 24 24" fill="none" xmlns="http://www.w3.org/2000/svg">
<path fill-rule="evenodd" clip-rule="evenodd" d="M18.3783 21.407C19.9253 21.407 20.6988 21.407 21.4598 20.8929C22.2208 20.3788 22.4342 19.8486 22.8608 18.7881C23.4034 17.4395 23.702 15.9664 23.702 14.4236C23.702 7.96184 18.4637 2.72357 12.002 2.72357C5.54027 2.72357 0.302002 7.96184 0.302002 14.4236C0.302002 15.9664 0.600622 17.4395 1.14322 18.7881C1.56985 19.8486 1.78316 20.3788 2.54417 20.8929C3.30518 21.407 4.07868 21.407 5.62569 21.407H18.3783Z" fill="#0549CF"/>
<path fill-rule="evenodd" clip-rule="evenodd" d="M2.42563 13.7736C2.78462 13.7736 3.07563 14.0646 3.07563 14.4236C3.07563 15.5147 3.2711 16.5587 3.62837 17.5234C3.75304 17.86 3.5812 18.234 3.24455 18.3587C2.90791 18.4833 2.53395 18.3115 2.40928 17.9748C1.9993 16.8678 1.77563 15.6711 1.77563 14.4236C1.77563 14.0646 2.06665 13.7736 2.42563 13.7736ZM21.5785 13.7736C21.9375 13.7736 22.2285 14.0646 22.2285 14.4236C22.2285 15.6711 22.0048 16.8678 21.5948 17.9748C21.4702 18.3115 21.0962 18.4833 20.7596 18.3587C20.4229 18.234 20.2511 17.86 20.3758 17.5234C20.733 16.5587 20.9285 15.5147 20.9285 14.4236C20.9285 14.0646 21.2195 13.7736 21.5785 13.7736Z" fill="white"/>
<path fill-rule="evenodd" clip-rule="evenodd" d="M12.0021 5.49717C11.4051 5.49717 10.8224 5.55569 10.2593 5.66709C9.90709 5.73676 9.56513 5.50776 9.49547 5.1556C9.4258 4.80344 9.6548 4.46148 10.007 4.39181C10.6528 4.26405 11.3199 4.19717 12.0021 4.19717C12.6842 4.19717 13.3514 4.26405 13.9972 4.39181C14.3493 4.46148 14.5783 4.80344 14.5087 5.1556C14.439 5.50776 14.097 5.73676 13.7449 5.66709C13.1817 5.55569 12.599 5.49717 12.0021 5.49717ZM7.22138 6.09857C7.42109 6.39687 7.34116 6.80059 7.04286 7.0003C6.06914 7.65219 5.23066 8.49068 4.57877 9.4644C4.37906 9.7627 3.97533 9.84263 3.67703 9.64292C3.37872 9.44321 3.2988 9.03948 3.49851 8.74118C4.24493 7.62625 5.20472 6.66647 6.31964 5.92005C6.61795 5.72034 7.02167 5.80026 7.22138 6.09857ZM16.7827 6.09857C16.9825 5.80026 17.3862 5.72034 17.6845 5.92005C18.7994 6.66647 19.7592 7.62626 20.5056 8.74118C20.7053 9.03949 20.6254 9.44321 20.3271 9.64292C20.0288 9.84263 19.6251 9.7627 19.4254 9.4644C18.7735 8.49068 17.935 7.65219 16.9613 7.00031C16.663 6.8006 16.583 6.39687 16.7827 6.09857ZM2.73406 11.917C3.08622 11.9867 3.31522 12.3286 3.24556 12.6808C3.13415 13.2439 3.07563 13.8266 3.07563 14.4236C3.07563 14.7826 2.78462 15.0736 2.42563 15.0736C2.06665 15.0736 1.77563 14.7826 1.77563 14.4236C1.77563 13.7415 1.84251 13.0743 1.97027 12.4285C2.03994 12.0763 2.3819 11.8473 2.73406 11.917ZM21.2701 11.917C21.6222 11.8473 21.9642 12.0763 22.0339 12.4285C22.1616 13.0743 22.2285 13.7415 22.2285 14.4236C22.2285 14.7826 21.9375 15.0736 21.5785 15.0736C21.2195 15.0736 20.9285 14.7826 20.9285 14.4236C20.9285 13.8266 20.87 13.2439 20.7586 12.6808C20.6889 12.3286 20.9179 11.9867 21.2701 11.917Z" fill="white"/>
<path d="M10.1207 14.9577C10.1757 14.8655 10.2412 14.7801 10.316 14.7031L15.8057 9.05192C16.217 8.62854 16.4227 8.41685 16.5511 8.43751C16.6141 8.44764 16.6708 8.48149 16.7097 8.53213C16.7889 8.6353 16.7003 8.91682 16.5232 9.47988L14.1588 16.9954C14.1265 17.0977 14.0825 17.196 14.0275 17.2881L13.9559 17.4083C13.3123 18.4871 11.9161 18.84 10.8373 18.1964L-nan -nanL10.8373 18.1964C9.75842 17.5529 9.40554 16.1566 10.0491 15.0778L10.1207 14.9577Z" fill="#FF931E"/>
</svg>
