<svg width="16" height="20" viewBox="0 0 16 20" fill="none" xmlns="http://www.w3.org/2000/svg">
<path fill-rule="evenodd" clip-rule="evenodd" d="M7.33337 4.66666C4.75605 4.66666 2.66671 6.756 2.66671 9.33333C2.66671 11.9107 4.75605 14 7.33337 14C9.9107 14 12 11.9107 12 9.33333C12 6.756 9.9107 4.66666 7.33337 4.66666ZM1.33337 9.33333C1.33337 6.01962 4.01967 3.33333 7.33337 3.33333C10.6471 3.33333 13.3334 6.01962 13.3334 9.33333C13.3334 12.647 10.6471 15.3333 7.33337 15.3333C4.01967 15.3333 1.33337 12.647 1.33337 9.33333Z" fill="#737373"/>
<path fill-rule="evenodd" clip-rule="evenodd" d="M10.6286 12.6286C10.889 12.3682 11.3111 12.3682 11.5714 12.6286L14.4714 15.5286C14.7318 15.7889 14.7318 16.2111 14.4714 16.4714C14.2111 16.7318 13.789 16.7318 13.5286 16.4714L10.6286 13.5714C10.3683 13.3111 10.3683 12.8889 10.6286 12.6286Z" fill="#737373"/>
</svg>
