<svg width="65" height="64" viewBox="0 0 65 64" fill="none" xmlns="http://www.w3.org/2000/svg">
<rect x="0.833374" width="64" height="64" rx="32" fill="#7CB8FF"/>
<g clip-path="url(#clip0_1_4449)">
<path fill-rule="evenodd" clip-rule="evenodd" d="M18.786 36.6193C20.0362 35.3691 21.7319 34.6667 23.5 34.6667H34.1667C35.9348 34.6667 37.6305 35.3691 38.8808 36.6193C40.131 37.8695 40.8334 39.5652 40.8334 41.3333V44C40.8334 44.7364 40.2364 45.3333 39.5 45.3333C38.7637 45.3333 38.1667 44.7364 38.1667 44V41.3333C38.1667 40.2725 37.7453 39.2551 36.9951 38.5049C36.245 37.7548 35.2276 37.3333 34.1667 37.3333H23.5C22.4392 37.3333 21.4218 37.7548 20.6716 38.5049C19.9215 39.2551 19.5 40.2725 19.5 41.3333V44C19.5 44.7364 18.9031 45.3333 18.1667 45.3333C17.4303 45.3333 16.8334 44.7364 16.8334 44V41.3333C16.8334 39.5652 17.5358 37.8695 18.786 36.6193Z" fill="white"/>
<path fill-rule="evenodd" clip-rule="evenodd" d="M28.8334 21.3333C26.6242 21.3333 24.8334 23.1242 24.8334 25.3333C24.8334 27.5425 26.6242 29.3333 28.8334 29.3333C31.0425 29.3333 32.8334 27.5425 32.8334 25.3333C32.8334 23.1242 31.0425 21.3333 28.8334 21.3333ZM22.1667 25.3333C22.1667 21.6514 25.1515 18.6667 28.8334 18.6667C32.5153 18.6667 35.5 21.6514 35.5 25.3333C35.5 29.0152 32.5153 32 28.8334 32C25.1515 32 22.1667 29.0152 22.1667 25.3333Z" fill="white"/>
<path fill-rule="evenodd" clip-rule="evenodd" d="M42.209 35.84C42.3931 35.127 43.1204 34.6982 43.8334 34.8823C45.2636 35.2516 46.5307 36.0854 47.4356 37.2529C48.3406 38.4203 48.8323 39.8552 48.8334 41.3323V44C48.8334 44.7364 48.2364 45.3333 47.5 45.3333C46.7637 45.3333 46.1667 44.7364 46.1667 44V41.3343C46.1667 41.3342 46.1667 41.3345 46.1667 41.3343C46.166 40.4482 45.871 39.587 45.3281 38.8866C44.7851 38.1862 44.0248 37.6859 43.1667 37.4643C42.4537 37.2802 42.025 36.553 42.209 35.84Z" fill="white"/>
<path fill-rule="evenodd" clip-rule="evenodd" d="M36.875 19.8426C37.0577 19.1293 37.7841 18.699 38.4974 18.8817C39.9315 19.2488 41.2025 20.0828 42.1102 21.2522C43.0178 22.4215 43.5105 23.8597 43.5105 25.34C43.5105 26.8203 43.0178 28.2585 42.1102 29.4278C41.2025 30.5972 39.9315 31.4312 38.4974 31.7983C37.7841 31.981 37.0577 31.5508 36.875 30.8374C36.6924 30.124 37.1226 29.3977 37.836 29.215C38.6964 28.9947 39.459 28.4943 40.0036 27.7927C40.5482 27.0911 40.8438 26.2282 40.8438 25.34C40.8438 24.4518 40.5482 23.5889 40.0036 22.8873C39.459 22.1857 38.6964 21.6853 37.836 21.465C37.1226 21.2824 36.6924 20.556 36.875 19.8426Z" fill="white"/>
</g>
<defs>
<clipPath id="clip0_1_4449">
<rect width="32" height="32" fill="white" transform="translate(16.8334 16)"/>
</clipPath>
</defs>
</svg>
