<svg width="16" height="16" viewBox="0 0 16 16" fill="none" xmlns="http://www.w3.org/2000/svg">
<g clip-path="url(#clip0_1_4573)">
<path fill-rule="evenodd" clip-rule="evenodd" d="M7.99996 2C4.68625 2 1.99996 4.68629 1.99996 8C1.99996 11.3137 4.68625 14 7.99996 14C11.3137 14 14 11.3137 14 8C14 4.68629 11.3137 2 7.99996 2ZM0.666626 8C0.666626 3.94991 3.94987 0.666664 7.99996 0.666664C12.05 0.666664 15.3333 3.94991 15.3333 8C15.3333 12.0501 12.05 15.3333 7.99996 15.3333C3.94987 15.3333 0.666626 12.0501 0.666626 8Z" fill="#737373"/>
<path fill-rule="evenodd" clip-rule="evenodd" d="M7.99996 7.33333C8.36815 7.33333 8.66663 7.63181 8.66663 8V10.6667C8.66663 11.0349 8.36815 11.3333 7.99996 11.3333C7.63177 11.3333 7.33329 11.0349 7.33329 10.6667V8C7.33329 7.63181 7.63177 7.33333 7.99996 7.33333Z" fill="#737373"/>
<path d="M8.66663 5.33333C8.66663 5.70152 8.36815 6 7.99996 6C7.63177 6 7.33329 5.70152 7.33329 5.33333C7.33329 4.96514 7.63177 4.66666 7.99996 4.66666C8.36815 4.66666 8.66663 4.96514 8.66663 5.33333Z" fill="#737373"/>
</g>
<defs>
<clipPath id="clip0_1_4573">
<rect width="16" height="16" fill="white"/>
</clipPath>
</defs>
</svg>
