<svg width="95" height="30" viewBox="0 0 95 30" fill="none" xmlns="http://www.w3.org/2000/svg">
<g clip-path="url(#clip0_1_5137)">
<path d="M43.55 15.7017C43.8822 16.1551 44.0523 16.7075 44.0331 17.2698C44.0506 17.6653 43.9662 18.0587 43.7882 18.4121C43.6101 18.7655 43.3443 19.0669 43.0165 19.2875C42.3387 19.7591 41.3505 19.9949 40.0517 19.9949H35.1406C35.1094 19.9952 35.0785 19.9892 35.0496 19.9774C35.0208 19.9656 34.9945 19.9482 34.9724 19.9262C34.9502 19.9041 34.9327 19.8779 34.9207 19.8491C34.9087 19.8202 34.9025 19.7892 34.9025 19.758V10.2375C34.9025 10.1742 34.9276 10.1135 34.9723 10.0687C35.0169 10.0239 35.0775 9.99878 35.1406 9.99878H39.7667C40.9797 9.99878 41.9112 10.2311 42.5611 10.6957C42.8699 10.9041 43.1212 11.1872 43.2917 11.5189C43.4621 11.8507 43.5462 12.2202 43.5361 12.5932C43.5437 13.05 43.4233 13.4998 43.1885 13.8913C43.0344 14.145 42.8339 14.3673 42.5976 14.5465C42.5642 14.5701 42.5374 14.6021 42.52 14.6392C42.5026 14.6764 42.4951 14.7174 42.4982 14.7584C42.5014 14.7993 42.5151 14.8387 42.538 14.8727C42.5609 14.9067 42.5922 14.9342 42.6289 14.9524C42.9914 15.1245 43.3073 15.3815 43.55 15.7017ZM37.193 11.9799V13.8582C37.193 13.921 37.2179 13.9813 37.2622 14.0258C37.3065 14.0702 37.3667 14.0952 37.4293 14.0952H39.4817C40.0517 14.0952 40.4833 13.9953 40.7764 13.7955C40.9202 13.6994 41.0366 13.5674 41.114 13.4125C41.1914 13.2576 41.2272 13.0851 41.2178 12.9121C41.2266 12.7409 41.1904 12.5703 41.113 12.4174C41.0355 12.2646 40.9195 12.1348 40.7764 12.0409C40.4833 11.8457 40.0517 11.7482 39.4817 11.7482H37.4293C37.3675 11.7481 37.3082 11.7724 37.264 11.8157C37.2199 11.859 37.1944 11.918 37.193 11.9799ZM41.2526 17.9476C41.4046 17.848 41.5275 17.7097 41.6087 17.5468C41.6899 17.384 41.7266 17.2024 41.7148 17.0207C41.7148 16.1936 41.1031 15.7801 39.8797 15.7801H37.4293C37.3981 15.7801 37.3673 15.7863 37.3385 15.7983C37.3097 15.8103 37.2836 15.8279 37.2616 15.8501C37.2396 15.8723 37.2223 15.8986 37.2105 15.9276C37.1987 15.9565 37.1928 15.9875 37.193 16.0188V18.0086C37.1921 18.0403 37.1975 18.0719 37.2089 18.1014C37.2204 18.131 37.2377 18.1579 37.2597 18.1807C37.2817 18.2034 37.3081 18.2215 37.3373 18.2339C37.3664 18.2462 37.3977 18.2526 37.4293 18.2525H39.8797C40.4879 18.2525 40.945 18.1463 41.2526 17.9476Z" fill="#181818"/>
<path d="M46.3758 10.004H48.204C48.2668 10.0045 48.3269 10.0298 48.3712 10.0746C48.4155 10.1193 48.4403 10.1797 48.4403 10.2427V19.7493C48.4415 19.7811 48.4362 19.8129 48.4249 19.8427C48.4135 19.8724 48.3963 19.8996 48.3742 19.9225C48.3522 19.9454 48.3257 19.9637 48.2965 19.9761C48.2672 19.9886 48.2358 19.995 48.204 19.995H46.3758C46.3129 19.995 46.2526 19.9701 46.208 19.9257C46.1634 19.8813 46.1382 19.821 46.1377 19.758V10.2375C46.1395 10.1753 46.1653 10.1161 46.2097 10.0726C46.2541 10.029 46.3137 10.0045 46.3758 10.004Z" fill="#181818"/>
<path d="M60.7563 15.28C60.7563 18.3136 58.6483 20.1588 55.8765 20.1588C52.764 20.1588 50.5309 17.8623 50.5309 15.0117C50.5272 14.3285 50.6591 13.6514 50.919 13.0198C51.1789 12.3882 51.5615 11.8148 52.0447 11.333C52.5278 10.8512 53.1018 10.4706 53.7331 10.2134C54.3644 9.95625 55.0404 9.82761 55.7218 9.83502C57.5152 9.83502 59.0428 10.6749 59.91 11.8945C59.9282 11.9209 59.9407 11.9508 59.9468 11.9822C59.9529 12.0137 59.9525 12.0461 59.9454 12.0774C59.9384 12.1087 59.925 12.1381 59.906 12.1639C59.8871 12.1898 59.863 12.2113 59.8352 12.2273L58.3094 13.0985C58.2618 13.1263 58.2059 13.1361 58.1518 13.1262C58.0976 13.1163 58.0488 13.0873 58.014 13.0445C57.5656 12.4695 56.7315 12.0409 55.7062 12.0409C54.0378 12.0409 52.7936 13.2745 52.7936 15.0187C52.7936 16.7071 53.9805 17.9407 55.9043 17.9407C57.1433 17.9407 58.1982 17.2716 58.4467 16.4178C58.4537 16.4002 58.4563 16.3811 58.4544 16.3622C58.4525 16.3433 58.4461 16.3251 58.4357 16.3092C58.4253 16.2933 58.4112 16.2802 58.3947 16.2709C58.3782 16.2616 58.3596 16.2564 58.3407 16.2558H56.0242C55.9629 16.2558 55.9041 16.2314 55.8607 16.1879C55.8174 16.1444 55.793 16.0855 55.793 16.024V14.6545C55.793 14.593 55.8174 14.5341 55.8607 14.4906C55.9041 14.4472 55.9629 14.4228 56.0242 14.4228H60.5286C60.5896 14.4232 60.648 14.4478 60.6909 14.4913C60.7339 14.5347 60.758 14.5933 60.758 14.6545L60.7563 15.28Z" fill="#181818"/>
<path d="M35.4809 26.555C35.3177 26.5041 35.1688 26.4151 35.0464 26.2954L35.1611 26.0707C35.2741 26.1792 35.4093 26.2619 35.5574 26.3129C35.7208 26.3738 35.8939 26.4051 36.0683 26.4052C36.2627 26.4189 36.4565 26.3714 36.6227 26.2693C36.6799 26.2311 36.7268 26.1793 36.7593 26.1185C36.7917 26.0577 36.8087 25.9898 36.8086 25.9208C36.8107 25.8721 36.8029 25.8235 36.7855 25.7779C36.7682 25.7324 36.7418 25.6909 36.7078 25.656C36.6379 25.5884 36.5543 25.5367 36.4628 25.5044C36.3299 25.4586 36.1947 25.4197 36.0579 25.3876C35.8892 25.3476 35.7232 25.297 35.5608 25.236C35.4392 25.188 35.3308 25.1116 35.2446 25.013C35.1526 24.8984 35.1062 24.7539 35.1142 24.607C35.1134 24.4725 35.1514 24.3406 35.2237 24.2272C35.3066 24.1045 35.4239 24.0093 35.5608 23.9536C35.7403 23.8795 35.9334 23.8445 36.1274 23.8508C36.2837 23.8504 36.4394 23.8721 36.5896 23.9153C36.7286 23.9514 36.8608 24.0103 36.9807 24.0895L36.8833 24.323C36.6588 24.1747 36.3962 24.0948 36.1274 24.093C35.9356 24.0793 35.7445 24.1289 35.5834 24.2342C35.526 24.2748 35.4793 24.3289 35.4475 24.3918C35.4157 24.4546 35.3997 24.5244 35.401 24.5948C35.3987 24.6434 35.4063 24.6919 35.4234 24.7375C35.4404 24.783 35.4665 24.8246 35.5 24.8597C35.5715 24.9295 35.6576 24.9825 35.752 25.0148C35.8528 25.0496 35.9884 25.0879 36.1587 25.1298C36.3248 25.1692 36.4885 25.2186 36.6487 25.2779C36.7707 25.3245 36.8793 25.4005 36.965 25.4991C37.0567 25.6118 37.1032 25.7547 37.0953 25.8999C37.0962 26.035 37.0569 26.1672 36.9824 26.2797C36.8961 26.403 36.7751 26.4977 36.6348 26.5516C36.4535 26.6233 36.2597 26.6577 36.0648 26.6526C35.8661 26.6534 35.6686 26.6204 35.4809 26.555Z" fill="#707070"/>
<path d="M38.0744 26.5133C37.9168 26.4247 37.7864 26.2945 37.6973 26.1369C37.6073 25.97 37.5601 25.7831 37.5601 25.5933C37.5601 25.4035 37.6073 25.2167 37.6973 25.0497C37.786 24.8922 37.9165 24.7625 38.0744 24.6751C38.2404 24.587 38.4254 24.541 38.6131 24.541C38.8009 24.541 38.9859 24.587 39.1519 24.6751C39.3096 24.7621 39.4397 24.8919 39.5272 25.0497C39.6162 25.217 39.6628 25.4037 39.6628 25.5933C39.6628 25.7829 39.6162 25.9696 39.5272 26.1369C39.4393 26.2949 39.3094 26.4252 39.1519 26.5133C38.9863 26.6025 38.8012 26.6492 38.6131 26.6492C38.4251 26.6492 38.24 26.6025 38.0744 26.5133ZM39.0076 26.3007C39.1248 26.2342 39.2202 26.1349 39.2822 26.015C39.3462 25.8837 39.3795 25.7395 39.3795 25.5933C39.3795 25.4472 39.3462 25.3029 39.2822 25.1717C39.2202 25.0517 39.1248 24.9525 39.0076 24.8859C38.8867 24.8196 38.751 24.7848 38.6131 24.7848C38.4753 24.7848 38.3396 24.8196 38.2187 24.8859C38.1015 24.9531 38.0058 25.0522 37.9423 25.1717C37.8772 25.3026 37.8432 25.447 37.8432 25.5933C37.8432 25.7397 37.8772 25.884 37.9423 26.015C38.0058 26.1344 38.1015 26.2335 38.2187 26.3007C38.3396 26.3671 38.4753 26.4018 38.6131 26.4018C38.751 26.4018 38.8867 26.3671 39.0076 26.3007Z" fill="#707070"/>
<path d="M42.0103 24.5565L41.0893 26.63H40.8026L39.8867 24.5565H40.1787L40.952 26.3233L41.734 24.5565H42.0103Z" fill="#707070"/>
<path d="M44.2433 25.6804H42.5054C42.5099 25.7797 42.5342 25.8772 42.5769 25.967C42.6196 26.0568 42.6798 26.1371 42.7539 26.2031C42.9112 26.3382 43.1135 26.4091 43.3205 26.4017C43.4399 26.4027 43.5582 26.379 43.668 26.332C43.7754 26.2869 43.8711 26.2178 43.9478 26.1299L44.106 26.3042C44.0123 26.4154 43.893 26.5021 43.7584 26.5568C43.6138 26.6152 43.459 26.6442 43.3031 26.6422C43.1069 26.6461 42.913 26.5993 42.74 26.5063C42.5793 26.4194 42.4463 26.289 42.356 26.1299C42.2627 25.9642 42.2153 25.7765 42.2187 25.5863C42.2153 25.3967 42.2608 25.2095 42.3508 25.0427C42.434 24.8864 42.5592 24.7567 42.7122 24.6681C42.8701 24.58 43.0477 24.5338 43.2284 24.5338C43.409 24.5338 43.5866 24.58 43.7445 24.6681C43.8956 24.7571 44.0195 24.8861 44.1025 25.0409C44.1903 25.209 44.2345 25.3966 44.2311 25.5863L44.2433 25.6804ZM42.7435 24.973C42.6064 25.1038 42.5239 25.2819 42.5124 25.4713H43.9791C43.9691 25.2819 43.887 25.1035 43.7497 24.973C43.6128 24.845 43.4311 24.7761 43.244 24.7813C43.1521 24.7785 43.0605 24.7939 42.9746 24.8268C42.8887 24.8597 42.8101 24.9094 42.7435 24.973Z" fill="#707070"/>
<path d="M45.4758 24.6472C45.6247 24.5716 45.7903 24.5351 45.9572 24.5409V24.8127H45.8911C45.7966 24.8074 45.7021 24.8226 45.6139 24.8572C45.5258 24.8917 45.4461 24.9449 45.3802 25.0131C45.2483 25.1704 45.1818 25.3725 45.1943 25.5776V26.6335H44.9162V24.56H45.1838V24.966C45.2432 24.8302 45.3459 24.7181 45.4758 24.6472Z" fill="#707070"/>
<path d="M48.3397 25.6804H46.6106C46.6147 25.7797 46.6387 25.8771 46.6811 25.9669C46.7235 26.0567 46.7834 26.137 46.8573 26.2032C47.0146 26.3383 47.2169 26.4092 47.4239 26.4018C47.5432 26.4025 47.6615 26.3788 47.7714 26.3321C47.8783 26.287 47.9735 26.2178 48.0495 26.13L48.2076 26.3042C48.1139 26.4155 47.9946 26.5022 47.8601 26.5569C47.7161 26.6154 47.5618 26.6444 47.4065 26.6423C47.2097 26.6461 47.0153 26.5993 46.8417 26.5063C46.6814 26.419 46.5484 26.2887 46.4576 26.13C46.3652 25.964 46.3178 25.7765 46.3203 25.5864C46.3221 25.3973 46.3724 25.2119 46.4663 25.048C46.5501 24.8921 46.6752 24.7625 46.8278 24.6733C46.9864 24.5825 47.1665 24.5361 47.3491 24.5392C47.5319 24.5352 47.7122 24.5816 47.8705 24.6733C48.022 24.7619 48.146 24.891 48.2285 25.0462C48.3177 25.2138 48.3626 25.4016 48.3588 25.5916L48.3397 25.6804ZM46.84 24.973C46.7034 25.1041 46.6214 25.2821 46.6106 25.4714H48.0773C48.0658 25.2819 47.9832 25.1039 47.8462 24.973C47.7075 24.8496 47.5285 24.7814 47.3431 24.7814C47.1576 24.7814 46.9786 24.8496 46.84 24.973Z" fill="#707070"/>
<path d="M49.0084 24.0443C48.9895 24.0261 48.9744 24.0042 48.9642 23.9799C48.9541 23.9556 48.949 23.9295 48.9494 23.9032C48.949 23.8771 48.9541 23.8513 48.9643 23.8273C48.9745 23.8033 48.9895 23.7816 49.0084 23.7638C49.0276 23.7446 49.0503 23.7295 49.0754 23.7193C49.1005 23.7091 49.1274 23.7041 49.1544 23.7045C49.1811 23.7038 49.2076 23.7085 49.2324 23.7184C49.2572 23.7283 49.2798 23.7431 49.2987 23.762C49.3179 23.7789 49.3331 23.7999 49.3433 23.8234C49.3536 23.8469 49.3585 23.8723 49.3577 23.8979C49.3584 23.9251 49.3535 23.9521 49.3433 23.9773C49.3332 24.0024 49.318 24.0253 49.2987 24.0443C49.2801 24.0638 49.2577 24.0791 49.2328 24.0893C49.208 24.0996 49.1813 24.1044 49.1544 24.1036C49.1273 24.1044 49.1003 24.0996 49.0752 24.0894C49.05 24.0792 49.0273 24.0638 49.0084 24.0443ZM49.0084 24.5566H49.2882V26.63H49.0084V24.5566Z" fill="#707070"/>
<path d="M52.0825 24.5565V26.3773C52.0947 26.5184 52.0782 26.6605 52.034 26.795C51.9897 26.9294 51.9187 27.0535 51.8253 27.1597C51.719 27.2514 51.5956 27.3211 51.4622 27.3648C51.3289 27.4084 51.1883 27.4252 51.0485 27.4141C50.8639 27.415 50.6803 27.3868 50.5045 27.3304C50.3499 27.2827 50.2071 27.2025 50.0857 27.0952L50.2265 26.8826C50.3333 26.9755 50.4573 27.0465 50.5914 27.0917C50.7363 27.1414 50.8884 27.1667 51.0415 27.1666C51.2503 27.1842 51.4577 27.1184 51.6185 26.9837C51.6856 26.9058 51.7367 26.8154 51.7686 26.7175C51.8005 26.6197 51.8127 26.5165 51.8044 26.4139V26.1491C51.7184 26.2792 51.5981 26.383 51.4568 26.4488C51.3114 26.5181 51.1521 26.5533 50.9911 26.5516C50.8065 26.5536 50.6243 26.5093 50.4611 26.4226C50.3059 26.3404 50.177 26.216 50.0892 26.0637C49.9985 25.9045 49.9508 25.7243 49.9508 25.541C49.9508 25.3576 49.9985 25.1775 50.0892 25.0182C50.179 24.8708 50.3069 24.7503 50.4593 24.6698C50.6236 24.5847 50.8062 24.5416 50.9911 24.5443C51.1554 24.5418 51.3179 24.5782 51.4655 24.6506C51.6077 24.719 51.7281 24.8258 51.8131 24.959V24.56L52.0825 24.5565ZM51.4308 26.2066C51.5477 26.145 51.6448 26.0513 51.7106 25.9365C51.7791 25.8168 51.814 25.6807 51.8114 25.5427C51.8144 25.4052 51.7795 25.2696 51.7106 25.1507C51.645 25.0367 51.5486 24.9437 51.4325 24.8823C51.3072 24.8163 51.1674 24.7828 51.0259 24.7848C50.8856 24.7821 50.7469 24.8151 50.6227 24.8806C50.5062 24.9412 50.4092 25.0336 50.3429 25.1472C50.2767 25.2681 50.242 25.4039 50.242 25.5418C50.242 25.6798 50.2767 25.8155 50.3429 25.9365C50.4092 26.0509 50.5061 26.1445 50.6227 26.2066C50.7469 26.2721 50.8856 26.305 51.0259 26.3024C51.1667 26.3046 51.3058 26.2717 51.4308 26.2066Z" fill="#707070"/>
<path d="M54.6336 24.7674C54.7145 24.8561 54.7765 24.9604 54.816 25.0739C54.8554 25.1874 54.8714 25.3078 54.863 25.4277V26.63H54.5832V25.4556C54.5952 25.2767 54.5379 25.1002 54.4233 24.9625C54.3631 24.9027 54.2909 24.8563 54.2116 24.8263C54.1322 24.7963 54.0475 24.7833 53.9628 24.7883C53.867 24.7841 53.7714 24.7996 53.6817 24.8338C53.5921 24.8679 53.5103 24.92 53.4415 24.9869C53.3739 25.0609 53.3219 25.1478 53.2884 25.2424C53.255 25.337 53.2408 25.4373 53.2468 25.5375V26.6248H52.967V24.5513H53.2347V24.9346C53.3099 24.8083 53.4197 24.7061 53.5509 24.6402C53.6967 24.5682 53.8577 24.5323 54.0202 24.5356C54.1327 24.5314 54.2448 24.5497 54.3502 24.5895C54.4555 24.6293 54.5519 24.6898 54.6336 24.7674Z" fill="#707070"/>
<path d="M56.8129 26.5045C56.7565 26.5542 56.6902 26.591 56.6183 26.6126C56.5401 26.637 56.4586 26.6493 56.3767 26.6492C56.2953 26.6546 56.2136 26.6435 56.1366 26.6166C56.0596 26.5896 55.9887 26.5474 55.9284 26.4924C55.8732 26.4327 55.8307 26.3623 55.8035 26.2856C55.7763 26.209 55.765 26.1275 55.7702 26.0463V24.7935H55.4018V24.5565H55.7702V24.1035H56.05V24.5565H56.6791V24.7935H56.05V26.0306C56.043 26.1331 56.076 26.2344 56.1421 26.3129C56.1773 26.3466 56.2191 26.3726 56.2649 26.3891C56.3107 26.4056 56.3595 26.4123 56.408 26.4087C56.467 26.4096 56.5257 26.4007 56.5818 26.3826C56.633 26.3654 56.6803 26.3382 56.7208 26.3024L56.8129 26.5045Z" fill="#707070"/>
<path d="M59.1175 24.5565L58.0835 26.8791C58.0232 27.0397 57.9226 27.1819 57.7916 27.2921C57.6765 27.3755 57.5372 27.4184 57.3953 27.4141C57.3 27.4149 57.2053 27.399 57.1155 27.367C57.0313 27.3373 56.9547 27.2891 56.8914 27.2259L57.0217 27.0168C57.0708 27.067 57.1295 27.1068 57.1943 27.1338C57.2591 27.1607 57.3287 27.1743 57.3988 27.1736C57.4859 27.176 57.5712 27.1483 57.6404 27.0952C57.7229 27.0216 57.7872 26.9297 57.8281 26.8269L57.9184 26.6265L56.9939 24.5565H57.2841L58.0627 26.3181L58.8412 24.5565H59.1175Z" fill="#707070"/>
<path d="M60.7966 23.7045H61.0642V27.3949H60.8053L60.7966 23.7045Z" fill="#707070"/>
<path d="M65.4832 23.87V26.63H65.1947V25.3563H63.4725V26.63H63.1823V23.87H63.4725V25.1001H65.1947V23.87H65.4832Z" fill="#707070"/>
<path d="M66.7239 26.5133C66.5663 26.4247 66.4359 26.2945 66.3468 26.1369C66.2568 25.97 66.2096 25.7831 66.2096 25.5933C66.2096 25.4035 66.2568 25.2167 66.3468 25.0497C66.4354 24.8922 66.566 24.7625 66.7239 24.6751C66.8899 24.587 67.0748 24.541 67.2626 24.541C67.4504 24.541 67.6354 24.587 67.8014 24.6751C67.9591 24.7621 68.0892 24.8919 68.1767 25.0497C68.2657 25.217 68.3123 25.4037 68.3123 25.5933C68.3123 25.7829 68.2657 25.9696 68.1767 26.1369C68.0888 26.2949 67.9588 26.4252 67.8014 26.5133C67.6357 26.6025 67.4506 26.6492 67.2626 26.6492C67.0746 26.6492 66.8895 26.6025 66.7239 26.5133ZM67.6589 26.3007C67.7754 26.2339 67.8702 26.1346 67.9317 26.015C67.9969 25.884 68.0308 25.7397 68.0308 25.5933C68.0308 25.447 67.9969 25.3026 67.9317 25.1717C67.8702 25.052 67.7754 24.9527 67.6589 24.8859C67.5376 24.8196 67.4016 24.7848 67.2635 24.7848C67.1253 24.7848 66.9894 24.8196 66.8681 24.8859C66.7509 24.9525 66.6555 25.0517 66.5936 25.1717C66.5273 25.3023 66.4928 25.4468 66.4928 25.5933C66.4928 25.7399 66.5273 25.8843 66.5936 26.015C66.6555 26.1349 66.7509 26.2342 66.8681 26.3007C66.9894 26.3671 67.1253 26.4018 67.2635 26.4018C67.4016 26.4018 67.5376 26.3671 67.6589 26.3007Z" fill="#707070"/>
<path d="M68.9811 23.7045H69.2609V26.63H68.9811V23.7045Z" fill="#707070"/>
<path d="M70.1338 24.0443C70.1148 24.0261 70.0997 24.0042 70.0895 23.9799C70.0794 23.9556 70.0743 23.9295 70.0747 23.9032C70.0743 23.8771 70.0794 23.8513 70.0896 23.8273C70.0998 23.8033 70.1148 23.7816 70.1338 23.7638C70.1529 23.7446 70.1757 23.7295 70.2007 23.7193C70.2258 23.7091 70.2527 23.7041 70.2797 23.7045C70.3064 23.7038 70.333 23.7085 70.3578 23.7184C70.3826 23.7283 70.4051 23.7431 70.424 23.762C70.4432 23.7789 70.4584 23.7999 70.4687 23.8234C70.4789 23.8469 70.4838 23.8723 70.4831 23.8979C70.4837 23.9251 70.4788 23.9521 70.4686 23.9773C70.4585 24.0024 70.4433 24.0253 70.424 24.0443C70.4054 24.0638 70.383 24.0791 70.3581 24.0893C70.3333 24.0996 70.3066 24.1044 70.2797 24.1036C70.2526 24.1044 70.2256 24.0996 70.2005 24.0894C70.1754 24.0792 70.1526 24.0638 70.1338 24.0443ZM70.1338 24.5566H70.4135V26.63H70.1338V24.5566Z" fill="#707070"/>
<path d="M71.3657 26.5778C71.2348 26.5408 71.1125 26.478 71.006 26.3931L71.1328 26.1735C71.2301 26.2502 71.3401 26.3092 71.4578 26.3478C71.5902 26.3912 71.7287 26.4129 71.8679 26.4122C72.0131 26.4222 72.1581 26.3915 72.2868 26.3234C72.3293 26.2975 72.3642 26.2609 72.388 26.2171C72.4118 26.1734 72.4237 26.124 72.4223 26.0742C72.423 26.0415 72.4167 26.009 72.4039 25.9789C72.391 25.9489 72.3718 25.9219 72.3476 25.9C72.2923 25.8536 72.2277 25.8197 72.1582 25.8007C72.0587 25.7733 71.9577 25.7518 71.8558 25.7362C71.7189 25.7121 71.5837 25.6796 71.4509 25.6386C71.3496 25.6047 71.2591 25.5446 71.1885 25.4644C71.1125 25.3728 71.074 25.2557 71.0807 25.1368C71.0797 25.0536 71.099 24.9714 71.1369 24.8973C71.1747 24.8232 71.23 24.7595 71.2979 24.7117C71.4738 24.5888 71.6851 24.5275 71.8992 24.5374C72.0348 24.5374 72.1698 24.5555 72.3007 24.5914C72.4175 24.6198 72.529 24.6668 72.6308 24.7308L72.5075 24.9556C72.3276 24.8358 72.1151 24.7749 71.8992 24.7813C71.7569 24.7702 71.6146 24.8024 71.4908 24.8737C71.449 24.9003 71.4146 24.9371 71.3909 24.9807C71.3672 25.0243 71.3549 25.0732 71.3553 25.1229C71.3539 25.1579 71.36 25.1928 71.3732 25.2252C71.3864 25.2577 71.4063 25.287 71.4317 25.311C71.4856 25.3616 71.5514 25.3976 71.6229 25.4156C71.7265 25.4443 71.8315 25.4676 71.9375 25.4853C72.0712 25.5091 72.2035 25.5405 72.3337 25.5794C72.4317 25.6096 72.5199 25.6655 72.5891 25.7414C72.6641 25.8287 72.7021 25.9418 72.6951 26.0568C72.6973 26.1421 72.6776 26.2266 72.6381 26.3022C72.5986 26.3778 72.5404 26.4421 72.4692 26.4889C72.2813 26.6052 72.0623 26.6605 71.8419 26.6475C71.6805 26.6486 71.52 26.6251 71.3657 26.5778Z" fill="#707070"/>
<path d="M74.4034 26.5045C74.347 26.5542 74.2806 26.591 74.2087 26.6126C74.1305 26.637 74.0491 26.6493 73.9672 26.6492C73.8857 26.6585 73.8032 26.6494 73.7258 26.6224C73.6483 26.5955 73.5779 26.5515 73.5197 26.4936C73.4614 26.4358 73.4169 26.3655 73.3894 26.2881C73.3619 26.2107 73.3521 26.128 73.3607 26.0463V24.7935H72.9922V24.5565H73.3607V24.1035H73.6405V24.5565H74.2713V24.7935H73.6422V26.0306C73.6352 26.1331 73.6682 26.2344 73.7343 26.3129C73.7694 26.3466 73.8113 26.3726 73.8571 26.3891C73.9029 26.4056 73.9516 26.4123 74.0002 26.4087C74.0591 26.4096 74.1178 26.4007 74.174 26.3826C74.2252 26.3654 74.2724 26.3382 74.313 26.3024L74.4034 26.5045Z" fill="#707070"/>
<path d="M75.0047 24.0443C74.9857 24.0261 74.9707 24.0041 74.9605 23.9799C74.9504 23.9556 74.9453 23.9295 74.9456 23.9031C74.9453 23.8771 74.9504 23.8512 74.9606 23.8272C74.9707 23.8032 74.9858 23.7816 75.0047 23.7637C75.0441 23.7262 75.0964 23.7053 75.1507 23.7053C75.205 23.7053 75.2573 23.7262 75.2967 23.7637C75.315 23.7813 75.3295 23.8024 75.3393 23.8258C75.3492 23.8491 75.3542 23.8743 75.354 23.8996C75.3546 23.9266 75.3498 23.9535 75.34 23.9786C75.3301 24.0037 75.3154 24.0266 75.2967 24.046C75.2575 24.0839 75.2051 24.1051 75.1507 24.1051C75.0962 24.1051 75.0439 24.0839 75.0047 24.046V24.0443ZM75.0047 24.5565H75.2845V26.63H75.0047V24.5565Z" fill="#707070"/>
<path d="M76.4734 26.5151C76.3141 26.428 76.1828 26.2975 76.0945 26.1387C76.0045 25.9714 75.9573 25.7843 75.9573 25.5942C75.9573 25.4041 76.0045 25.217 76.0945 25.0497C76.1834 24.8917 76.3146 24.7619 76.4734 24.6751C76.642 24.5841 76.8311 24.5379 77.0225 24.5409C77.1878 24.5382 77.3514 24.574 77.5004 24.6455C77.6379 24.7132 77.7531 24.819 77.8324 24.9504L77.6238 25.0933C77.5597 24.9942 77.4703 24.9142 77.3649 24.8615C77.2564 24.8096 77.1375 24.7833 77.0173 24.7849C76.8765 24.7831 76.7376 24.8179 76.6141 24.8859C76.495 24.9517 76.3977 25.051 76.3343 25.1717C76.2681 25.3026 76.2336 25.4474 76.2336 25.5942C76.2336 25.741 76.2681 25.8858 76.3343 26.0167C76.3986 26.1363 76.4957 26.2349 76.6141 26.3007C76.7373 26.3696 76.8764 26.4044 77.0173 26.4018C77.1374 26.4039 77.2563 26.3783 77.3649 26.3269C77.4701 26.2755 77.5595 26.1966 77.6238 26.0986L77.8324 26.2398C77.7532 26.3725 77.6364 26.4786 77.497 26.5447C77.3491 26.616 77.1866 26.6518 77.0225 26.6492C76.831 26.6531 76.6417 26.6068 76.4734 26.5151Z" fill="#707070"/>
<path d="M79.6588 23.7045H79.9177V27.3949H79.6588V23.7045Z" fill="#707070"/>
<path d="M83.777 25.8929H82.2425L81.9123 26.63H81.6099L82.8681 23.87H83.1549L84.413 26.63H84.1072L83.777 25.8929ZM83.6693 25.656L83.0089 24.1749L82.3485 25.656H83.6693Z" fill="#707070"/>
<path d="M86.8048 24.5565V26.3774C86.8263 26.5192 86.8141 26.6642 86.7691 26.8004C86.7242 26.9367 86.6478 27.0604 86.5462 27.1614C86.4446 27.2624 86.3206 27.338 86.1843 27.3819C86.0481 27.4258 85.9034 27.4368 85.7621 27.4141C85.5769 27.4152 85.3928 27.387 85.2164 27.3304C85.0619 27.2823 84.9192 27.2022 84.7976 27.0952L84.9401 26.8826C85.0463 26.9755 85.1697 27.0466 85.3033 27.0917C85.4482 27.1414 85.6003 27.1667 85.7534 27.1667C85.9628 27.1845 86.1708 27.1187 86.3321 26.9837C86.3989 26.9057 86.4496 26.8152 86.4813 26.7174C86.5129 26.6196 86.5248 26.5164 86.5163 26.4139V26.1491C86.4307 26.2796 86.3103 26.3835 86.1687 26.4488C86.0234 26.5183 85.864 26.5535 85.703 26.5516C85.5212 26.5525 85.3421 26.5082 85.1816 26.4227C85.026 26.3405 84.8965 26.2161 84.808 26.0637C84.7185 25.9041 84.6714 25.7241 84.6714 25.541C84.6714 25.3579 84.7185 25.1779 84.808 25.0183C84.898 24.8703 85.0266 24.7498 85.1799 24.6698C85.3409 24.5859 85.5199 24.5428 85.7012 24.5443C85.8661 24.5415 86.0293 24.578 86.1774 24.6506C86.319 24.7199 86.4392 24.8265 86.525 24.959V24.56L86.8048 24.5565ZM86.1513 26.2066C86.2697 26.1451 86.3684 26.0515 86.4363 25.9365C86.5041 25.8165 86.5389 25.6806 86.5371 25.5427C86.5394 25.4053 86.5045 25.2699 86.4363 25.1507C86.3703 25.0365 86.2733 24.9434 86.1566 24.8824C86.031 24.8188 85.8923 24.7857 85.7516 24.7857C85.611 24.7857 85.4723 24.8188 85.3467 24.8824C85.2305 24.9427 85.134 25.0352 85.0687 25.149C85.0025 25.2699 84.9678 25.4057 84.9678 25.5436C84.9678 25.6816 85.0025 25.8173 85.0687 25.9383C85.134 26.0529 85.2304 26.1465 85.3467 26.2083C85.4721 26.2713 85.6105 26.3042 85.7508 26.3042C85.8911 26.3042 86.0294 26.2713 86.1548 26.2083L86.1513 26.2066Z" fill="#707070"/>
<path d="M87.6803 24.0443C87.6616 24.0258 87.6468 24.0039 87.6367 23.9796C87.6265 23.9554 87.6213 23.9294 87.6212 23.9031C87.6213 23.8771 87.6266 23.8514 87.6367 23.8274C87.6469 23.8035 87.6617 23.7818 87.6803 23.7637C87.7197 23.7262 87.772 23.7053 87.8263 23.7053C87.8806 23.7053 87.9329 23.7262 87.9723 23.7637C87.9908 23.7812 88.0055 23.8022 88.0157 23.8256C88.0259 23.849 88.0312 23.8742 88.0313 23.8996C88.0316 23.9267 88.0265 23.9536 88.0164 23.9787C88.0062 24.0039 87.9912 24.0267 87.9723 24.046C87.9331 24.0839 87.8807 24.1051 87.8263 24.1051C87.7718 24.1051 87.7195 24.0839 87.6803 24.046V24.0443ZM87.6803 24.5565H87.9601V26.63H87.6803V24.5565Z" fill="#707070"/>
<path d="M88.8412 23.7045H89.1192V26.63H88.8412V23.7045Z" fill="#707070"/>
<path d="M89.9921 24.0443C89.9736 24.0257 89.959 24.0037 89.9492 23.9795C89.9394 23.9552 89.9344 23.9293 89.9347 23.9031C89.9345 23.8772 89.9394 23.8515 89.9493 23.8276C89.9591 23.8037 89.9737 23.7819 89.9921 23.7637C90.0315 23.7262 90.0837 23.7053 90.138 23.7053C90.1924 23.7053 90.2446 23.7262 90.284 23.7637C90.3032 23.7806 90.3185 23.8016 90.3287 23.8251C90.3389 23.8486 90.3438 23.874 90.3431 23.8996C90.342 23.9395 90.3295 23.9783 90.3071 24.0112C90.2846 24.0441 90.2531 24.0699 90.2164 24.0853C90.1798 24.1008 90.1394 24.1053 90.1002 24.0983C90.061 24.0913 90.0247 24.0732 89.9955 24.046L89.9921 24.0443ZM89.9921 24.5565H90.2701V26.63H89.9921V24.5565Z" fill="#707070"/>
<path d="M92.2424 26.5045C92.1857 26.5537 92.1194 26.5904 92.0478 26.6126C91.969 26.6372 91.887 26.6495 91.8045 26.6492C91.7234 26.6545 91.642 26.6433 91.5653 26.6164C91.4885 26.5894 91.418 26.5473 91.3579 26.4924C91.3027 26.4327 91.2602 26.3623 91.233 26.2856C91.2058 26.209 91.1945 26.1275 91.1997 26.0463V24.7935H90.8296V24.5565H91.1997V24.1035H91.4761V24.5565H92.1052V24.7935H91.4761V26.0306C91.4683 26.1332 91.5014 26.2347 91.5682 26.3129C91.6033 26.3466 91.6452 26.3726 91.691 26.3891C91.7368 26.4056 91.7855 26.4123 91.8341 26.4087C91.893 26.4096 91.9517 26.4007 92.0078 26.3826C92.0589 26.365 92.106 26.3378 92.1469 26.3024L92.2424 26.5045Z" fill="#707070"/>
<path d="M94.5449 24.5565L93.5109 26.8791C93.4511 27.0395 93.3511 27.1817 93.2207 27.2921C93.105 27.3755 92.9651 27.4184 92.8227 27.4141C92.728 27.4148 92.6339 27.3988 92.5447 27.367C92.4604 27.3373 92.3838 27.2891 92.3205 27.2259L92.4508 27.0168C92.4999 27.067 92.5586 27.1068 92.6234 27.1338C92.6882 27.1607 92.7578 27.1743 92.8279 27.1736C92.915 27.1757 93.0002 27.148 93.0695 27.0952C93.1514 27.0214 93.2151 26.9296 93.2554 26.8269L93.3458 26.6265L92.423 24.5565H92.7132L93.4918 26.3181L94.2703 24.5565H94.5449Z" fill="#707070"/>
<path d="M71.352 15.7017C71.6856 16.1545 71.8565 16.7072 71.8369 17.2698C71.854 17.6655 71.7693 18.0589 71.591 18.4123C71.4126 18.7656 71.1466 19.067 70.8185 19.2875C70.1408 19.7591 69.1525 19.9949 67.8538 19.9949H62.9427C62.8798 19.9949 62.8195 19.97 62.7749 19.9256C62.7303 19.8813 62.705 19.821 62.7046 19.758V10.2375C62.705 10.1743 62.7303 10.1139 62.7748 10.0692C62.8194 10.0245 62.8797 9.99924 62.9427 9.99878H67.5688C68.7841 9.99878 69.7156 10.2311 70.3632 10.6957C70.672 10.9041 70.9233 11.1872 71.0937 11.5189C71.2642 11.8507 71.3482 12.2202 71.3381 12.5932C71.3452 13.0499 71.2249 13.4996 70.9906 13.8913C70.8353 14.1447 70.6344 14.3669 70.398 14.5465C70.3649 14.5704 70.3386 14.6025 70.3215 14.6395C70.3044 14.6766 70.297 14.7175 70.3002 14.7582C70.3033 14.799 70.3168 14.8382 70.3394 14.8722C70.362 14.9062 70.393 14.9338 70.4292 14.9524C70.7924 15.1243 71.1089 15.3813 71.352 15.7017ZM64.995 11.9799V13.8582C64.995 13.8895 65.0012 13.9204 65.0132 13.9493C65.0252 13.9782 65.0428 14.0044 65.0649 14.0264C65.087 14.0484 65.1133 14.0658 65.1422 14.0776C65.171 14.0894 65.2019 14.0954 65.2331 14.0952H67.2855C67.8544 14.0952 68.2853 13.9953 68.5785 13.7955C68.7223 13.6994 68.8386 13.5674 68.916 13.4125C68.9934 13.2576 69.0292 13.0851 69.0199 12.9121C69.0286 12.7409 68.9925 12.5703 68.9151 12.4174C68.8376 12.2646 68.7215 12.1348 68.5785 12.0409C68.2842 11.8457 67.8532 11.7482 67.2855 11.7482H65.2349C65.1725 11.7472 65.1123 11.7711 65.0673 11.8145C65.0224 11.8579 64.9964 11.9173 64.995 11.9799ZM69.0581 17.9476C69.2101 17.848 69.333 17.7097 69.4143 17.5468C69.4955 17.384 69.5321 17.2024 69.5204 17.0207C69.5204 16.1936 68.9086 15.7801 67.6852 15.7801H65.2349C65.1717 15.7801 65.1112 15.8052 65.0665 15.85C65.0219 15.8948 64.9968 15.9555 64.9968 16.0188V18.0086C64.9961 18.0404 65.0017 18.072 65.0134 18.1016C65.025 18.1311 65.0425 18.1581 65.0647 18.1808C65.0868 18.2035 65.1133 18.2216 65.1425 18.2339C65.1718 18.2462 65.2032 18.2526 65.2349 18.2525H67.6852C68.29 18.2525 68.747 18.1463 69.0581 17.9476Z" fill="#707070"/>
<path d="M75.9671 19.4879C75.161 19.0632 74.4871 18.4242 74.019 17.641C73.5578 16.8362 73.3151 15.9242 73.3151 14.996C73.3151 14.0678 73.5578 13.1559 74.019 12.3511C74.4866 11.5674 75.1607 10.9283 75.9671 10.5041C76.8317 10.0631 77.7881 9.83325 78.7581 9.83325C79.7281 9.83325 80.6845 10.0631 81.5491 10.5041C82.3609 10.9384 83.0398 11.5858 83.5132 12.3769C83.9866 13.1681 84.2366 14.0734 84.2366 14.996C84.2366 15.9186 83.9866 16.8239 83.5132 17.6151C83.0398 18.4063 82.3609 19.0536 81.5491 19.4879C80.6841 19.9278 79.7279 20.1571 78.7581 20.1571C77.7883 20.1571 76.8321 19.9278 75.9671 19.4879ZM80.3534 17.7839C80.8231 17.5169 81.2094 17.1241 81.4691 16.6496C81.7357 16.1388 81.875 15.5708 81.875 14.9943C81.875 14.4178 81.7357 13.8498 81.4691 13.339C81.2104 12.8637 80.8238 12.4707 80.3534 12.2047C79.8646 11.9383 79.3171 11.7987 78.7607 11.7987C78.2043 11.7987 77.6568 11.9383 77.168 12.2047C76.6974 12.4711 76.3104 12.864 76.0506 13.339C75.784 13.8498 75.6447 14.4178 75.6447 14.9943C75.6447 15.5708 75.784 16.1388 76.0506 16.6496C76.3114 17.1239 76.6982 17.5165 77.168 17.7839C77.6568 18.0503 78.2043 18.1899 78.7607 18.1899C79.3171 18.1899 79.8646 18.0503 80.3534 17.7839Z" fill="#707070"/>
<path d="M92.1468 19.8851L90.0093 16.8045C89.9874 16.7729 89.9582 16.7471 89.9241 16.7292C89.8901 16.7114 89.8522 16.7021 89.8138 16.7021C89.7754 16.7021 89.7375 16.7114 89.7035 16.7292C89.6695 16.7471 89.6402 16.7729 89.6183 16.8045L87.5225 19.8816C87.5009 19.9134 87.4718 19.9394 87.4379 19.9573C87.404 19.9752 87.3662 19.9845 87.3278 19.9844H85.2737C85.2299 19.9844 85.187 19.9722 85.1497 19.9493C85.1124 19.9263 85.0821 19.8935 85.0621 19.8544C85.0422 19.8153 85.0334 19.7715 85.0367 19.7277C85.04 19.684 85.0553 19.642 85.0808 19.6063L88.3827 15.0465C88.4119 15.0062 88.4277 14.9577 88.4277 14.9079C88.4277 14.8581 88.4119 14.8096 88.3827 14.7694L85.2546 10.3786C85.2295 10.3429 85.2147 10.3011 85.2116 10.2576C85.2086 10.2141 85.2175 10.1706 85.2374 10.1318C85.2572 10.093 85.2873 10.0604 85.3244 10.0376C85.3614 10.0147 85.404 10.0025 85.4475 10.0022H87.479C87.5169 10.0023 87.5542 10.0116 87.5878 10.0291C87.6213 10.0467 87.6502 10.0721 87.6719 10.1033L89.6965 12.9643C89.7185 12.9952 89.7476 13.0204 89.7813 13.0378C89.815 13.0552 89.8524 13.0643 89.8903 13.0643C89.9282 13.0643 89.9655 13.0552 89.9992 13.0378C90.0329 13.0204 90.062 12.9952 90.084 12.9643L92.0686 10.1067C92.0902 10.075 92.1193 10.049 92.1532 10.031C92.1871 10.0131 92.2249 10.0038 92.2633 10.0039H94.1645C94.2081 10.0043 94.2508 10.0167 94.2879 10.0398C94.3249 10.0629 94.355 10.0957 94.3747 10.1347C94.3944 10.1737 94.4031 10.2174 94.3997 10.2611C94.3964 10.3047 94.3811 10.3465 94.3556 10.382L91.2571 14.6858C91.2282 14.7265 91.2127 14.7752 91.2127 14.8252C91.2127 14.8751 91.2282 14.9239 91.2571 14.9646L94.6041 19.6098C94.6316 19.6453 94.6485 19.6879 94.653 19.7326C94.6574 19.7773 94.6492 19.8223 94.6292 19.8626C94.6092 19.9028 94.5783 19.9365 94.5401 19.9599C94.5018 19.9834 94.4578 19.9955 94.413 19.9949H92.345C92.3054 19.9945 92.2666 19.9843 92.2321 19.9651C92.1975 19.9459 92.1682 19.9185 92.1468 19.8851Z" fill="#707070"/>
<path d="M9.6467 14.9664V18.1237C9.6465 18.1409 9.64183 18.1578 9.63313 18.1727C9.62444 18.1876 9.61203 18.2 9.59712 18.2086C9.58221 18.2172 9.56532 18.2218 9.54811 18.2218C9.5309 18.2219 9.51397 18.2175 9.49898 18.209L2.88654 14.4803C2.83445 14.4516 2.79091 14.4095 2.76038 14.3584C2.72984 14.3072 2.71341 14.2489 2.71275 14.1893V11.4956C2.6912 11.1308 2.59653 10.7742 2.43439 10.447C2.27226 10.1197 2.04599 9.82866 1.76911 9.5911C1.24776 9.18687 0.26589 8.61536 0.205066 8.5718C0.093845 8.50036 0.0121669 8.5596 0.0121669 8.66589L7.71725e-07 12.4121V21.3698C-0.000347567 21.8181 0.117234 22.2585 0.340882 22.6468C0.564529 23.035 0.886333 23.3572 1.27383 23.5809L2.57199 24.3318C2.58723 24.3403 2.6044 24.3446 2.6218 24.3444C2.63921 24.3442 2.65627 24.3395 2.67132 24.3307C2.68637 24.3219 2.6989 24.3094 2.70768 24.2943C2.71646 24.2793 2.72121 24.2622 2.72144 24.2447V18.0017C2.72134 17.9843 2.72579 17.9672 2.73436 17.952C2.74293 17.9369 2.75532 17.9243 2.77027 17.9155C2.78523 17.9066 2.80224 17.9019 2.8196 17.9018C2.83695 17.9016 2.85404 17.906 2.86916 17.9146L9.4816 21.6433C9.53392 21.6717 9.57767 21.7137 9.60824 21.7649C9.63881 21.8161 9.65509 21.8746 9.65538 21.9343V26.7573C9.65527 27.2611 9.78737 27.7561 10.0384 28.1925C10.2895 28.6289 10.6506 28.9915 11.0856 29.2437L12.356 29.9807C12.3729 29.9923 12.3928 29.999 12.4133 29.9999C12.4338 30.0009 12.4542 29.9962 12.4722 29.9863C12.4902 29.9763 12.5051 29.9616 12.5153 29.9437C12.5254 29.9258 12.5304 29.9055 12.5298 29.8849V15.9875C12.5294 15.6433 12.5774 15.3007 12.6723 14.9699L9.85524 13.6195C9.72195 14.0562 9.65172 14.5098 9.6467 14.9664Z" fill="url(#paint0_linear_1_5137)"/>
<path d="M9.6467 14.9664V18.1237C9.6465 18.1409 9.64183 18.1578 9.63313 18.1727C9.62444 18.1876 9.61203 18.2 9.59712 18.2086C9.58221 18.2172 9.56532 18.2218 9.54811 18.2218C9.5309 18.2219 9.51397 18.2175 9.49898 18.209L2.88654 14.4803C2.83445 14.4516 2.79091 14.4095 2.76038 14.3584C2.72984 14.3072 2.71341 14.2489 2.71275 14.1893V11.4956C2.6912 11.1308 2.59653 10.7742 2.43439 10.447C2.27226 10.1197 2.04599 9.82866 1.76911 9.5911C1.24776 9.18687 0.26589 8.61536 0.205066 8.5718C0.093845 8.50036 0.0121669 8.5596 0.0121669 8.66589L7.71725e-07 12.4121V21.3698C-0.000347567 21.8181 0.117234 22.2585 0.340882 22.6468C0.564529 23.035 0.886333 23.3572 1.27383 23.5809L2.57199 24.3318C2.58723 24.3403 2.6044 24.3446 2.6218 24.3444C2.63921 24.3442 2.65627 24.3395 2.67132 24.3307C2.68637 24.3219 2.6989 24.3094 2.70768 24.2943C2.71646 24.2793 2.72121 24.2622 2.72144 24.2447V18.0017C2.72134 17.9843 2.72579 17.9672 2.73436 17.952C2.74293 17.9369 2.75532 17.9243 2.77027 17.9155C2.78523 17.9066 2.80224 17.9019 2.8196 17.9018C2.83695 17.9016 2.85404 17.906 2.86916 17.9146L9.4816 21.6433C9.53392 21.6717 9.57767 21.7137 9.60824 21.7649C9.63881 21.8161 9.65509 21.8746 9.65538 21.9343V26.7573C9.65527 27.2611 9.78737 27.7561 10.0384 28.1925C10.2895 28.6289 10.6506 28.9915 11.0856 29.2437L12.356 29.9807C12.3729 29.9923 12.3928 29.999 12.4133 29.9999C12.4338 30.0009 12.4542 29.9962 12.4722 29.9863C12.4902 29.9763 12.5051 29.9616 12.5153 29.9437C12.5254 29.9258 12.5304 29.9055 12.5298 29.8849V15.9875C12.5294 15.6433 12.5774 15.3007 12.6723 14.9699L9.85524 13.6195C9.72195 14.0562 9.65172 14.5098 9.6467 14.9664Z" fill="url(#paint1_radial_1_5137)"/>
<path d="M9.6467 14.9664V18.1237C9.6465 18.1409 9.64183 18.1578 9.63313 18.1727C9.62444 18.1876 9.61203 18.2 9.59712 18.2086C9.58221 18.2172 9.56532 18.2218 9.54811 18.2218C9.5309 18.2219 9.51397 18.2175 9.49898 18.209L2.88654 14.4803C2.83445 14.4516 2.79091 14.4095 2.76038 14.3584C2.72984 14.3072 2.71341 14.2489 2.71275 14.1893V11.4956C2.6912 11.1308 2.59653 10.7742 2.43439 10.447C2.27226 10.1197 2.04599 9.82866 1.76911 9.5911C1.24776 9.18687 0.26589 8.61536 0.205066 8.5718C0.093845 8.50036 0.0121669 8.5596 0.0121669 8.66589L7.71725e-07 12.4121V21.3698C-0.000347567 21.8181 0.117234 22.2585 0.340882 22.6468C0.564529 23.035 0.886333 23.3572 1.27383 23.5809L2.57199 24.3318C2.58723 24.3403 2.6044 24.3446 2.6218 24.3444C2.63921 24.3442 2.65627 24.3395 2.67132 24.3307C2.68637 24.3219 2.6989 24.3094 2.70768 24.2943C2.71646 24.2793 2.72121 24.2622 2.72144 24.2447V18.0017C2.72134 17.9843 2.72579 17.9672 2.73436 17.952C2.74293 17.9369 2.75532 17.9243 2.77027 17.9155C2.78523 17.9066 2.80224 17.9019 2.8196 17.9018C2.83695 17.9016 2.85404 17.906 2.86916 17.9146L9.4816 21.6433C9.53392 21.6717 9.57767 21.7137 9.60824 21.7649C9.63881 21.8161 9.65509 21.8746 9.65538 21.9343V26.7573C9.65527 27.2611 9.78737 27.7561 10.0384 28.1925C10.2895 28.6289 10.6506 28.9915 11.0856 29.2437L12.356 29.9807C12.3729 29.9923 12.3928 29.999 12.4133 29.9999C12.4338 30.0009 12.4542 29.9962 12.4722 29.9863C12.4902 29.9763 12.5051 29.9616 12.5153 29.9437C12.5254 29.9258 12.5304 29.9055 12.5298 29.8849V15.9875C12.5294 15.6433 12.5774 15.3007 12.6723 14.9699L9.85524 13.6195C9.72195 14.0562 9.65172 14.5098 9.6467 14.9664Z" fill="url(#paint2_linear_1_5137)"/>
<path d="M25.7999 10.4954C25.7999 9.77578 24.8545 8.46027 22.8456 9.67472L15.4511 13.968C14.9995 14.2173 14.625 14.5863 14.3685 15.0347C14.1119 15.483 13.9833 15.9935 13.9965 16.5102V29.4423C13.9963 29.4644 14.002 29.4862 14.0129 29.5054C14.0238 29.5246 14.0396 29.5406 14.0586 29.5518C14.0777 29.5629 14.0993 29.5688 14.1214 29.5689C14.1434 29.5689 14.1651 29.5631 14.1842 29.5521L15.8334 28.5972C16.1713 28.402 16.4519 28.1209 16.6469 27.7823C16.8419 27.4436 16.9443 27.0594 16.9439 26.6684V23.3752L22.8525 19.941V24.3092C22.8528 24.3295 22.8583 24.3494 22.8685 24.3669C22.8787 24.3845 22.8932 24.3992 22.9106 24.4095C22.9281 24.4198 22.9479 24.4255 22.9681 24.4259C22.9884 24.4263 23.0084 24.4215 23.0263 24.412L24.7068 23.4136C25.0385 23.2163 25.3132 22.9358 25.504 22.5998C25.6947 22.2637 25.7949 21.8836 25.7947 21.4969L25.7999 10.4954ZM22.8456 16.5189L16.9369 19.9532V17.3692C16.937 17.1142 17.004 16.8637 17.1312 16.6429C17.2584 16.422 17.4414 16.2387 17.6616 16.1112L21.7073 13.7554C22.4685 13.3599 22.8456 13.8286 22.8456 14.4141V16.5189Z" fill="url(#paint3_linear_1_5137)"/>
<path d="M1.97764 5.29777C1.73757 5.43611 1.53813 5.63549 1.39945 5.87579C1.26077 6.11608 1.18774 6.3888 1.18774 6.66643C1.18774 6.94405 1.26077 7.21677 1.39945 7.45706C1.53813 7.69736 1.73757 7.89674 1.97764 8.03508L5.5454 10.1033C6.02162 10.3766 6.56077 10.5203 7.10945 10.5203C7.65813 10.5203 8.19728 10.3766 8.6735 10.1033L17.1715 5.37792C17.2912 5.30864 17.4269 5.27217 17.5651 5.27217C17.7033 5.27217 17.839 5.30864 17.9587 5.37792L19.7174 6.33101C19.7575 6.35381 19.7909 6.38687 19.8141 6.42681C19.8373 6.46676 19.8496 6.51216 19.8496 6.5584C19.8496 6.60463 19.8373 6.65004 19.8141 6.68998C19.7909 6.72993 19.7575 6.76299 19.7174 6.78578L18.7738 7.32941C18.7738 7.32941 14.603 9.51438 12.2639 10.8543C11.1586 11.485 10.1785 12.4225 9.83089 13.6212L12.6479 14.9716C12.9375 14.0229 13.5838 13.2243 14.45 12.7448L21.2832 8.97424L22.8472 8.06122C23.0869 7.92276 23.286 7.72343 23.4244 7.48332C23.5628 7.2432 23.6356 6.97076 23.6356 6.69343C23.6356 6.4161 23.5628 6.14366 23.4244 5.90355C23.286 5.66343 23.0869 5.46411 22.8472 5.32565L18.8346 3.06923C18.3575 2.79405 17.8166 2.64922 17.2662 2.64922C16.7158 2.64922 16.1749 2.79405 15.6978 3.06923L7.74723 7.41653C7.6272 7.48663 7.49078 7.52356 7.35188 7.52356C7.21297 7.52356 7.07655 7.48663 6.95652 7.41653L5.65662 6.62199C5.61651 6.5992 5.58314 6.56614 5.55992 6.5262C5.53671 6.48625 5.52448 6.44085 5.52448 6.39461C5.52448 6.34838 5.53671 6.30297 5.55992 6.26303C5.58314 6.22308 5.61651 6.19002 5.65662 6.16723L6.80185 5.5086L13.343 1.79728H13.3552C13.9622 1.49 14.62 1.29633 15.2964 1.22577C15.3148 1.22371 15.3322 1.21601 15.3461 1.20371C15.36 1.19142 15.3698 1.17512 15.3742 1.15704C15.3785 1.13897 15.3773 1.11998 15.3705 1.10266C15.3637 1.08534 15.3518 1.07053 15.3363 1.06024L15.0096 0.851156C13.3361 -0.227392 11.5687 -0.284891 9.84132 0.701309L3.12461 4.63566L1.97764 5.29777Z" fill="url(#paint4_linear_1_5137)"/>
<path d="M1.97764 5.29777C1.73757 5.43611 1.53813 5.63549 1.39945 5.87579C1.26077 6.11608 1.18774 6.3888 1.18774 6.66643C1.18774 6.94405 1.26077 7.21677 1.39945 7.45706C1.53813 7.69736 1.73757 7.89674 1.97764 8.03508L5.5454 10.1033C6.02162 10.3766 6.56077 10.5203 7.10945 10.5203C7.65813 10.5203 8.19728 10.3766 8.6735 10.1033L17.1715 5.37792C17.2912 5.30864 17.4269 5.27217 17.5651 5.27217C17.7033 5.27217 17.839 5.30864 17.9587 5.37792L19.7174 6.33101C19.7575 6.35381 19.7909 6.38687 19.8141 6.42681C19.8373 6.46676 19.8496 6.51216 19.8496 6.5584C19.8496 6.60463 19.8373 6.65004 19.8141 6.68998C19.7909 6.72993 19.7575 6.76299 19.7174 6.78578L18.7738 7.32941C18.7738 7.32941 14.603 9.51438 12.2639 10.8543C11.1586 11.485 10.1785 12.4225 9.83089 13.6212L12.6479 14.9716C12.9375 14.0229 13.5838 13.2243 14.45 12.7448L21.2832 8.97424L22.8472 8.06122C23.0869 7.92276 23.286 7.72343 23.4244 7.48332C23.5628 7.2432 23.6356 6.97076 23.6356 6.69343C23.6356 6.4161 23.5628 6.14366 23.4244 5.90355C23.286 5.66343 23.0869 5.46411 22.8472 5.32565L18.8346 3.06923C18.3575 2.79405 17.8166 2.64922 17.2662 2.64922C16.7158 2.64922 16.1749 2.79405 15.6978 3.06923L7.74723 7.41653C7.6272 7.48663 7.49078 7.52356 7.35188 7.52356C7.21297 7.52356 7.07655 7.48663 6.95652 7.41653L5.65662 6.62199C5.61651 6.5992 5.58314 6.56614 5.55992 6.5262C5.53671 6.48625 5.52448 6.44085 5.52448 6.39461C5.52448 6.34838 5.53671 6.30297 5.55992 6.26303C5.58314 6.22308 5.61651 6.19002 5.65662 6.16723L6.80185 5.5086L13.343 1.79728H13.3552C13.9622 1.49 14.62 1.29633 15.2964 1.22577C15.3148 1.22371 15.3322 1.21601 15.3461 1.20371C15.36 1.19142 15.3698 1.17512 15.3742 1.15704C15.3785 1.13897 15.3773 1.11998 15.3705 1.10266C15.3637 1.08534 15.3518 1.07053 15.3363 1.06024L15.0096 0.851156C13.3361 -0.227392 11.5687 -0.284891 9.84132 0.701309L3.12461 4.63566L1.97764 5.29777Z" fill="url(#paint5_radial_1_5137)"/>
</g>
<defs>
<linearGradient id="paint0_linear_1_5137" x1="3.14895" y1="24.6699" x2="9.74387" y2="13.2791" gradientUnits="userSpaceOnUse">
<stop stop-color="#FF1D25"/>
<stop offset="0.45" stop-color="#FF1F25"/>
<stop offset="0.64" stop-color="#FD2625"/>
<stop offset="0.78" stop-color="#FA3325"/>
<stop offset="0.9" stop-color="#F64424"/>
<stop offset="1" stop-color="#F15A24"/>
</linearGradient>
<radialGradient id="paint1_radial_1_5137" cx="0" cy="0" r="1" gradientUnits="userSpaceOnUse" gradientTransform="translate(11.2785 14.3078) scale(5.15788 5.17145)">
<stop offset="0.1" stop-color="#F15A24"/>
<stop offset="1" stop-color="#F15A24" stop-opacity="0"/>
</radialGradient>
<linearGradient id="paint2_linear_1_5137" x1="-0.00521272" y1="19.2684" x2="12.6566" y2="19.2684" gradientUnits="userSpaceOnUse">
<stop stop-color="#ED1C24"/>
<stop offset="1" stop-color="#FF1D25" stop-opacity="0"/>
</linearGradient>
<linearGradient id="paint3_linear_1_5137" x1="13.8349" y1="29.4196" x2="25.3534" y2="9.51973" gradientUnits="userSpaceOnUse">
<stop stop-color="#0549CF"/>
<stop offset="0.18" stop-color="#0B52D3"/>
<stop offset="0.47" stop-color="#1A6CDD"/>
<stop offset="0.84" stop-color="#3395ED"/>
<stop offset="1" stop-color="#3FA9F5"/>
</linearGradient>
<linearGradient id="paint4_linear_1_5137" x1="12.415" y1="-0.0026221" x2="12.415" y2="14.9664" gradientUnits="userSpaceOnUse">
<stop stop-color="#FFD800"/>
<stop offset="0.05" stop-color="#FFC907"/>
<stop offset="0.15" stop-color="#FFB111"/>
<stop offset="0.25" stop-color="#FFA018"/>
<stop offset="0.36" stop-color="#FF961D"/>
<stop offset="0.5" stop-color="#FF931E"/>
<stop offset="0.65" stop-color="#FE901E"/>
<stop offset="0.77" stop-color="#FC861F"/>
<stop offset="0.88" stop-color="#F87521"/>
<stop offset="0.99" stop-color="#F25D24"/>
<stop offset="1" stop-color="#F15A24"/>
</linearGradient>
<radialGradient id="paint5_radial_1_5137" cx="0" cy="0" r="1" gradientUnits="userSpaceOnUse" gradientTransform="translate(4793.14 3467.27) scale(623.827 416.06)">
<stop offset="0.1" stop-color="#F15A24"/>
<stop offset="1" stop-color="#F15A24" stop-opacity="0"/>
</radialGradient>
<clipPath id="clip0_1_5137">
<rect width="95" height="30" fill="white"/>
</clipPath>
</defs>
</svg>
